<svg width="300" height="21" viewBox="0 0 300 21" fill="none" xmlns="http://www.w3.org/2000/svg">
<g clip-path="url(#clip0_8259_79608)">
<path d="M130.97 9.24256H17.6752C17.2678 9.24256 16.9375 9.57287 16.9375 9.97952C16.9375 10.3862 17.2678 10.7165 17.6752 10.7165H130.97C131.377 10.7165 131.707 10.3862 131.707 9.97952C131.707 9.57287 131.377 9.24256 130.97 9.24256Z" fill="#1D1D1B"/>
<path d="M12.5408 2.90695C17.0185 2.90695 21.1961 4.10725 23.3715 5.35063C26.1659 6.947 38.6594 14.6409 38.7856 14.7187C39.0849 14.9039 39.1779 15.2962 38.9935 15.5955C38.8098 15.8948 38.4183 15.9893 38.1174 15.8034C37.992 15.7263 25.5158 8.04299 22.7388 6.45645C19.8144 4.78525 13.0064 3.19644 7.0291 4.90619C3.60205 5.88502 2.22488 7.71268 1.67311 9.07398C1.02232 10.6794 1.17198 12.5736 2.07296 14.1382C3.85829 17.238 8.52721 18.501 13.9686 17.3551C17.2626 16.6613 19.1266 14.5479 19.209 12.9115C19.2709 11.6688 18.3526 10.6817 16.6232 10.1329L16.4607 10.083L16.7917 8.85176L16.6088 9.46249L16.825 8.86234L17.0109 8.91903C19.308 9.64843 20.5733 11.1269 20.4811 12.9749C20.3548 15.4995 17.7267 17.8661 14.2309 18.6015C8.24074 19.8615 3.03441 18.3612 0.969408 14.7739C-0.126583 12.8714 -0.304209 10.5615 0.492463 8.59476C1.15081 6.97119 2.75776 4.80113 6.6799 3.68095C8.59599 3.13295 10.5967 2.90695 12.5408 2.90695Z" fill="#1D1D1B"/>
<path d="M26.6673 6.71573C26.7927 6.79359 39.287 14.4882 42.0807 16.0846C45.2016 17.8676 52.4419 19.5623 58.773 17.7542C62.6944 16.6341 64.3021 14.4633 64.9604 12.8397C65.7571 10.8729 65.5795 8.56229 64.4827 6.66056C62.9045 3.9168 59.4865 2.393 55.2855 2.393C53.9945 2.393 52.6301 2.53661 51.222 2.83366C50.3807 3.00977 49.5803 3.28113 48.841 3.63865C46.3414 4.85028 44.8229 6.92284 44.9733 8.91981C44.9816 9.03394 45.0005 9.16168 45.0255 9.29471C45.3702 9.03545 45.7798 8.83969 46.2477 8.72178C46.2039 7.2985 47.4488 5.72934 49.3966 4.78528C50.0413 4.47235 50.7443 4.23577 51.4843 4.08007C56.9264 2.93646 61.5946 4.19647 63.3792 7.29623C64.2809 8.86161 64.4298 10.755 63.7798 12.3612C63.228 13.7225 61.8508 15.5502 58.4238 16.529C52.4465 18.238 45.6385 16.6499 42.7133 14.9787C39.9363 13.3922 27.4609 5.70893 27.3354 5.63108C27.0376 5.44741 26.6446 5.54038 26.4586 5.83894C26.275 6.13826 26.3672 6.53131 26.6673 6.71573Z" fill="#1D1D1B"/>
<path d="M63.0379 6.71573C63.1633 6.79359 75.6576 14.4882 78.4513 16.0846C81.5722 17.8676 88.8125 19.5623 95.1436 17.7542C99.065 16.6341 100.673 14.4633 101.331 12.8397C102.128 10.8729 101.95 8.56229 100.853 6.66056C99.2751 3.9168 95.8571 2.393 91.6553 2.393C90.3651 2.393 89.0008 2.53661 87.5926 2.83366C86.7513 3.00977 85.9509 3.28113 85.2117 3.63865C82.712 4.85028 81.1935 6.92284 81.3439 8.91981C81.3523 9.03394 81.3711 9.16168 81.3961 9.29471C81.7408 9.03545 82.1504 8.83969 82.6183 8.72178C82.5745 7.2985 83.8194 5.72934 85.7672 4.78528C86.4119 4.47235 87.1149 4.23577 87.8549 4.08007C93.297 2.93646 97.9652 4.19647 99.7498 7.29623C100.652 8.86161 100.8 10.755 100.15 12.3612C99.5986 13.7225 98.2214 15.5502 94.7944 16.529C88.8171 18.238 82.0091 16.6499 79.0839 14.9787C76.3069 13.3922 63.8315 5.70893 63.706 5.63108C63.4082 5.44741 63.0152 5.54038 62.8293 5.83894C62.6456 6.13826 62.7378 6.53131 63.0379 6.71573Z" fill="#1D1D1B"/>
<path d="M18.9048 10.2338L16.5547 7.88371L14.2046 10.2338L16.5547 12.5838L18.9048 10.2338Z" fill="#1D1D1B"/>
<path d="M14.7505 10.2338L12.4004 7.88371L10.0503 10.2338L12.4004 12.5838L14.7505 10.2338Z" fill="#1D1D1B"/>
<path d="M168.498 9.24256H281.793C282.201 9.24256 282.531 9.57287 282.531 9.97952C282.531 10.3862 282.201 10.7165 281.793 10.7165H168.498C168.092 10.7165 167.761 10.3862 167.761 9.97952C167.761 9.57287 168.092 9.24256 168.498 9.24256Z" fill="#1D1D1B"/>
<path d="M286.928 2.90695C282.451 2.90695 278.273 4.10725 276.098 5.35063C273.303 6.947 260.81 14.6409 260.683 14.7187C260.384 14.9039 260.291 15.2962 260.476 15.5955C260.659 15.8948 261.051 15.9893 261.352 15.8034C261.477 15.7263 273.953 8.04299 276.73 6.45645C279.655 4.78525 286.463 3.19644 292.44 4.90619C295.867 5.88502 297.244 7.71268 297.796 9.07398C298.447 10.6794 298.297 12.5736 297.396 14.1382C295.611 17.238 290.942 18.501 285.5 17.3551C282.206 16.6613 280.343 14.5479 280.26 12.9115C280.198 11.6688 281.117 10.6817 282.846 10.1329L283.008 10.083L282.677 8.85176L282.86 9.46249L282.644 8.86234L282.458 8.91903C280.161 9.64843 278.896 11.1269 278.988 12.9749C279.114 15.4995 281.742 17.8661 285.238 18.6015C291.228 19.8615 296.435 18.3612 298.5 14.7739C299.596 12.8714 299.773 10.5615 298.977 8.59476C298.318 6.97119 296.711 4.80113 292.789 3.68095C290.873 3.13295 288.872 2.90695 286.928 2.90695Z" fill="#1D1D1B"/>
<path d="M272.801 6.71573C272.676 6.79359 260.181 14.4882 257.388 16.0846C254.267 17.8676 247.027 19.5623 240.695 17.7542C236.774 16.6341 235.166 14.4633 234.508 12.8397C233.711 10.8729 233.889 8.56229 234.986 6.66056C236.564 3.9168 239.982 2.393 244.183 2.393C245.474 2.393 246.838 2.53661 248.246 2.83366C249.088 3.00977 249.888 3.28113 250.627 3.63865C253.127 4.85028 254.646 6.92284 254.495 8.91981C254.487 9.03394 254.468 9.16168 254.443 9.29471C254.098 9.03545 253.689 8.83969 253.221 8.72178C253.265 7.2985 252.02 5.72934 250.072 4.78528C249.427 4.47235 248.724 4.23577 247.984 4.08007C242.542 2.93646 237.874 4.19647 236.089 7.29623C235.188 8.86161 235.038 10.755 235.689 12.3612C236.24 13.7225 237.618 15.5502 241.045 16.529C247.022 18.238 253.83 16.6499 256.755 14.9787C259.532 13.3922 272.008 5.70893 272.133 5.63108C272.431 5.44741 272.824 5.54038 273.01 5.83894C273.193 6.13826 273.101 6.53131 272.801 6.71573Z" fill="#1D1D1B"/>
<path d="M236.432 6.71573C236.306 6.79359 223.812 14.4882 221.018 16.0846C217.897 17.8676 210.657 19.5623 204.326 17.7542C200.404 16.6341 198.797 14.4633 198.138 12.8397C197.342 10.8729 197.519 8.56229 198.616 6.66056C200.194 3.9168 203.612 2.393 207.813 2.393C209.104 2.393 210.469 2.53661 211.877 2.83366C212.718 3.00977 213.519 3.28113 214.258 3.63865C216.757 4.85028 218.276 6.92284 218.125 8.91981C218.117 9.03394 218.098 9.16168 218.073 9.29471C217.729 9.03545 217.319 8.83969 216.851 8.72178C216.895 7.2985 215.65 5.72934 213.702 4.78528C213.057 4.47235 212.355 4.23577 211.615 4.08007C206.172 2.93646 201.504 4.19647 199.72 7.29623C198.818 8.86161 198.668 10.755 199.319 12.3612C199.871 13.7225 201.248 15.5502 204.675 16.529C210.652 18.238 217.46 16.6499 220.386 14.9787C223.162 13.3922 235.638 5.70893 235.763 5.63108C236.061 5.44741 236.454 5.54038 236.64 5.83894C236.824 6.13826 236.732 6.53131 236.432 6.71573Z" fill="#1D1D1B"/>
<path d="M282.914 12.5835L285.264 10.2334L282.914 7.88335L280.564 10.2334L282.914 12.5835Z" fill="#1D1D1B"/>
<path d="M287.068 12.5835L289.418 10.2334L287.068 7.88335L284.718 10.2334L287.068 12.5835Z" fill="#1D1D1B"/>
<path d="M148.748 0.606901L140.224 9.13068C139.615 9.7399 139.615 10.7271 140.224 11.3363L148.748 19.8601C149.357 20.4693 150.344 20.4693 150.953 19.8601L159.477 11.3363C160.086 10.7271 160.086 9.7399 159.477 9.13068L150.953 0.606901C150.344 -0.00231934 149.357 -0.00231934 148.748 0.606901Z" fill="#1D1D1B"/>
</g>
<defs>
<clipPath id="clip0_8259_79608">
<rect width="299.5" height="20.3174" fill="white" transform="matrix(1 0 0 -1 0 20.3174)"/>
</clipPath>
</defs>
</svg>
